<?xml version="1.0" encoding="UTF-8" standalone="no"?>
<svg
   xmlns:dc="http://purl.org/dc/elements/1.1/"
   xmlns:cc="http://creativecommons.org/ns#"
   xmlns:rdf="http://www.w3.org/1999/02/22-rdf-syntax-ns#"
   xmlns:svg="http://www.w3.org/2000/svg"
   xmlns="http://www.w3.org/2000/svg"
   xmlns:sodipodi="http://sodipodi.sourceforge.net/DTD/sodipodi-0.dtd"
   xmlns:inkscape="http://www.inkscape.org/namespaces/inkscape"
   width="13.929"
   height="13.929"
   viewBox="0 0 13.929 13.929"
   version="1.1"
   id="svg3723"
   sodipodi:docname="Path 1762.svg"
   inkscape:version="0.92.4 (5da689c313, 2019-01-14)">
  <metadata
     id="metadata3729">
    <rdf:RDF>
      <cc:Work
         rdf:about="">
        <dc:format>image/svg+xml</dc:format>
        <dc:type
           rdf:resource="http://purl.org/dc/dcmitype/StillImage" />
      </cc:Work>
    </rdf:RDF>
  </metadata>
  <defs
     id="defs3727" />
  <sodipodi:namedview
     pagecolor="#ffffff"
     bordercolor="#666666"
     borderopacity="1"
     objecttolerance="10"
     gridtolerance="10"
     guidetolerance="10"
     inkscape:pageopacity="0"
     inkscape:pageshadow="2"
     inkscape:window-width="1920"
     inkscape:window-height="1017"
     id="namedview3725"
     showgrid="false"
     inkscape:zoom="21.524394"
     inkscape:cx="9.3000571"
     inkscape:cy="3.9331422"
     inkscape:window-x="-8"
     inkscape:window-y="-8"
     inkscape:window-maximized="1"
     inkscape:current-layer="svg3723" />
  <path
     id="Path_1762"
     data-name="Path 1762"
     d="M9.643-5.893a3.755,3.755,0,0,1-3.75,3.75,3.755,3.755,0,0,1-3.75-3.75,3.755,3.755,0,0,1,3.75-3.75A3.755,3.755,0,0,1,9.643-5.893Zm4.286,6.964a1.078,1.078,0,0,0-.31-.753L10.748-2.553a5.879,5.879,0,0,0,1.038-3.34,5.891,5.891,0,0,0-5.893-5.893A5.891,5.891,0,0,0,0-5.893,5.891,5.891,0,0,0,5.893,0a5.879,5.879,0,0,0,3.34-1.038L12.1,1.825a1.051,1.051,0,0,0,.753.318A1.079,1.079,0,0,0,13.929,1.071Z"
     transform="translate(0 11.786)"
     fill="#333"
     style="fill:#ffffff;fill-opacity:1" />
</svg>
